<?xml version="1.0" encoding="UTF-8"?>
<svg version="1.1" xmlns="http://www.w3.org/2000/svg" width="126" height="82">
<path d="M0 0 C41.58 0 83.16 0 126 0 C126 27.06 126 54.12 126 82 C84.42 82 42.84 82 0 82 C0 54.94 0 27.88 0 0 Z " fill="#F1D5A7" transform="translate(0,0)"/>
<path d="M0 0 C1.32 0 2.64 0 4 0 C4.88935377 3.303314 5.46274105 6.62294375 6 10 C6.62648438 10.12117188 7.25296875 10.24234375 7.8984375 10.3671875 C9.12433594 10.61855469 9.12433594 10.61855469 10.375 10.875 C11.59316406 11.11863281 11.59316406 11.11863281 12.8359375 11.3671875 C15 12 15 12 17 14 C19.21072977 14.24253813 19.21072977 14.24253813 21.625 14.125 C22.44226562 14.10695313 23.25953125 14.08890625 24.1015625 14.0703125 C24.72804687 14.04710937 25.35453125 14.02390625 26 14 C32.11895715 24.07988924 30.57761271 35.75950942 29 47 C28.34 47 27.68 47 27 47 C27 47.99 27 48.98 27 50 C29.31 49.67 31.62 49.34 34 49 C40.11093554 36.66900507 38.23222837 26.0058713 35 13 C40.25099881 10.84456817 40.25099881 10.84456817 43.59765625 11.5390625 C55.56960986 16.81355236 55.56960986 16.81355236 58 23 C59.98 23 61.96 23 64 23 C64.36458333 27.49652778 64.36458333 27.49652778 62.6875 29.8125 C61 31 61 31 58 31 C58.11214844 32.09441406 58.11214844 32.09441406 58.2265625 33.2109375 C57.80708472 38.37485361 53.64059277 41.60167689 50 45 C45.09090909 48 45.09090909 48 42 48 C42.495 50.97 42.495 50.97 43 54 C42.01 54 41.02 54 40 54 C39.67 53.34 39.34 52.68 39 52 C35.37 52 31.74 52 28 52 C28.495 54.475 28.495 54.475 29 57 C27.68 57 26.36 57 25 57 C25 55.68 25 54.36 25 53 C24.3709375 53.04640625 23.741875 53.0928125 23.09375 53.140625 C16.5803444 53.41528668 12.54263004 52.31589658 7 49 C4.0588178 47.33808928 3.08613366 46.99843393 -0.4375 47.0625 C-4.41342146 46.99274699 -5.87375772 46.36580497 -9 44 C-9.7425 43.46375 -10.485 42.9275 -11.25 42.375 C-13.52745601 39.28416685 -13.60518166 36.79087537 -13.82421875 33.0234375 C-13.88086786 30.93149268 -13.88086786 30.93149268 -15 29 C-15.60315132 23.69226838 -14.25074909 21.15373494 -11 17 C-8.9375 14.625 -8.9375 14.625 -7 13 C-6.01 13 -5.02 13 -4 13 C-5.89404734 9.65756352 -6.94091591 9.02002851 -10.6875 7.75 C-11.780625 7.5025 -12.87375 7.255 -14 7 C-13.34 5.68 -12.68 4.36 -12 3 C-8.64825544 3.58931772 -6.91304802 4.69613428 -4.4375 7 C-2.15112792 9.11833137 -1.03246941 9.98917686 2 11 C1.67 9.9275 1.34 8.855 1 7.75 C0 4 0 4 0 0 Z " fill="#5B3F17" transform="translate(31,16)"/>
<path d="M0 0 C2.94788481 2.70886713 3.90021697 4.33893744 4.5 8.3125 C3.90969731 12.66598231 2.75646973 16.51187472 0 20 C-1.96875 20.69140625 -1.96875 20.69140625 -4 21 C-4.9075 21.185625 -5.815 21.37125 -6.75 21.5625 C-7.4925 21.706875 -8.235 21.85125 -9 22 C-8.525625 23.19625 -8.05125 24.3925 -7.5625 25.625 C-3.7984773 35.816269 -3.59166239 46.16835956 -8.02734375 56.13671875 C-9 58 -9 58 -10 59 C-12.33297433 59.04092937 -14.66705225 59.04241723 -17 59 C-17 58.01 -17 57.02 -17 56 C-16.34 56 -15.68 56 -15 56 C-14.91190799 52.18764896 -14.8592451 48.37556447 -14.8125 44.5625 C-14.78736328 43.49322266 -14.76222656 42.42394531 -14.73632812 41.32226562 C-14.67497318 34.63457674 -15.3733807 29.17418403 -18 23 C-19.00667725 23.14381104 -19.00667725 23.14381104 -20.03369141 23.29052734 C-24.8359375 23.9765625 -24.8359375 23.9765625 -27 24 C-27.66 23.34 -28.32 22.68 -29 22 C-31.32275177 21.59952556 -33.65739357 21.2602896 -36 21 C-34.68 20.67 -33.36 20.34 -32 20 C-32.495 19.195625 -32.99 18.39125 -33.5 17.5625 C-35.33614214 13.20166241 -35.77945761 9.66788821 -35 5 C-33.4375 2.4375 -33.4375 2.4375 -31 1 C-26.02332467 0.36660496 -22.99348179 0.94616098 -19 4 C-18.67 4.66 -18.34 5.32 -18 6 C-17.01 6.33 -16.02 6.66 -15 7 C-14.7525 6.401875 -14.505 5.80375 -14.25 5.1875 C-12.47261529 2.07707676 -10.38728725 0.53701442 -7.0625 -0.75 C-4.34487543 -1.07940904 -2.59931895 -0.90976163 0 0 Z " fill="#967952" transform="translate(75,7)"/>
<path d="M0 0 C3.94557146 2.25248125 7.50113547 4.50340641 9 9 C10.98 9 12.96 9 15 9 C15.36458333 13.49652778 15.36458333 13.49652778 13.6875 15.8125 C12 17 12 17 9 17 C9.06960937 17.73089844 9.13921875 18.46179688 9.2109375 19.21484375 C8.81427898 24.45220535 4.821854 27.70656955 1 31 C-3.67354972 33.6227682 -7.62959459 35 -13 35 C-12.54177532 31.53058454 -12.10868317 28.32604951 -11 25 C-10.24582507 15.99341093 -11.83454375 7.7133835 -14 -1 C-8.4605034 -3.65312732 -5.37862213 -2.48244098 0 0 Z " fill="#573B13" transform="translate(80,30)"/>
<path d="M0 0 C1.0209375 0.0009668 1.0209375 0.0009668 2.0625 0.00195312 C7.09338846 0.04669423 7.09338846 0.04669423 9.375 1.1875 C9.375 1.8475 9.375 2.5075 9.375 3.1875 C8.2921875 4.0228125 8.2921875 4.0228125 7.1875 4.875 C2.23461415 8.94737281 -1.25888978 13.85371624 -2.625 20.1875 C-2.77070518 23.52867056 -2.74386957 26.84594434 -2.625 30.1875 C-10.63515658 29.26325116 -10.63515658 29.26325116 -13.625 27.1875 C-14.41796875 24.83984375 -14.41796875 24.83984375 -14.8125 22.125 C-15.07774003 18.8547107 -15.07774003 18.8547107 -16.625 16.1875 C-17.09677341 11.54839485 -17.3714188 8.53504483 -14.375 4.8125 C-9.71179916 0.36126284 -6.34054187 -0.115393 0 0 Z " fill="#EFDCBE" transform="translate(35.625,29.8125)"/>
<path d="M0 0 C3 1 3 1 4.6875 4.3125 C7.42606054 12.34080644 6.5999871 21.05559496 4 29 C3.34 29.99 2.68 30.98 2 32 C-1.71480543 32.41275616 -4.11461964 32.47674327 -7.4375 30.6875 C-9 29 -9 29 -9 26 C-8.34 26 -7.68 26 -7 26 C-7 25.01 -7 24.02 -7 23 C-7.99 23 -8.98 23 -10 23 C-10.33 23.66 -10.66 24.32 -11 25 C-11.70175712 17.31965819 -11.45439417 12.07557026 -6.65625 5.8515625 C-4.58916906 3.54072201 -2.67562231 1.59091056 0 0 Z " fill="#E3B355" transform="translate(47,33)"/>
<path d="M0 0 C1.32 0 2.64 0 4 0 C4.88935377 3.303314 5.46274105 6.62294375 6 10 C8.97 10.66 11.94 11.32 15 12 C15 14.33333333 15 16.66666667 15 19 C13.33784732 20.33895632 11.67036393 21.67130142 10 23 C5.79203783 28.68643536 5.49546288 33.03458478 6 40 C6.99 40 7.98 40 9 40 C9 40.99 9 41.98 9 43 C8.34 43 7.68 43 7 43 C8.3089572 46.12197478 8.3089572 46.12197478 11 48 C12.37342831 48.0689472 13.75002102 48.08467708 15.125 48.0625 C17.043125 48.0315625 17.043125 48.0315625 19 48 C19 48.66 19 49.32 19 50 C15.98640847 50.60403142 13.07907567 51.05750396 10 51 C8.31295807 49.69254251 6.64639965 48.35827971 5 47 C2.68735943 46.82145054 0.4602509 46.93927981 -1.85546875 47.04296875 C-4.95034088 46.98095856 -6.61404681 45.90876255 -9 44 C-9.7425 43.46375 -10.485 42.9275 -11.25 42.375 C-13.52745601 39.28416685 -13.60518166 36.79087537 -13.82421875 33.0234375 C-13.88086786 30.93149268 -13.88086786 30.93149268 -15 29 C-15.60315132 23.69226838 -14.25074909 21.15373494 -11 17 C-8.9375 14.625 -8.9375 14.625 -7 13 C-6.01 13 -5.02 13 -4 13 C-5.89404734 9.65756352 -6.94091591 9.02002851 -10.6875 7.75 C-11.780625 7.5025 -12.87375 7.255 -14 7 C-13.34 5.68 -12.68 4.36 -12 3 C-8.64825544 3.58931772 -6.91304802 4.69613428 -4.4375 7 C-2.15112792 9.11833137 -1.03246941 9.98917686 2 11 C1.67 9.9275 1.34 8.855 1 7.75 C0 4 0 4 0 0 Z M-10.875 19.75 C-12.61861431 23.23722861 -12.2538916 26.12815309 -12 30 C-11.67 30.33 -11.34 30.66 -11 31 C-10.75855318 32.62322081 -10.53170686 34.24862651 -10.3125 35.875 C-9.5205011 40.21189774 -9.5205011 40.21189774 -6.1875 43.125 C-3.23518255 43.93544008 -1.02443512 44.0718881 2 44 C1.95359375 43.38253906 1.9071875 42.76507813 1.859375 42.12890625 C1.45559309 32.65445208 4.37445875 26.31666792 10.6328125 19.3125 C12 18 12 18 14 17 C14 16.34 14 15.68 14 15 C10.96843143 13.48421572 8.12033386 13.75028073 4.75 13.6875 C2.79320312 13.63142578 2.79320312 13.63142578 0.796875 13.57421875 C-4.31668767 14.14765325 -7.18424068 16.3052913 -10.875 19.75 Z " fill="#8C7049" transform="translate(31,16)"/>
<path d="M0 0 C3.59748893 12.07728427 5.00242963 22.50136975 -1 34 C-2 35 -2 35 -5.5625 35.0625 C-6.696875 35.041875 -7.83125 35.02125 -9 35 C-9 34.01 -9 33.02 -9 32 C-8.34 32 -7.68 32 -7 32 C-7 21.77 -7 11.54 -7 1 C-4.53721199 -0.231394 -2.7204945 -0.07159196 0 0 Z " fill="#DAAD58" transform="translate(67,31)"/>
<path d="M0 0 C2.46599301 2.62011757 2.96613549 4.23804851 3.125 7.8125 C1.46076364 12.52783635 -0.90620629 16.06124095 -5 19 C-8.44258334 19.65048813 -11.54473022 19.50056222 -15 19 C-15.57405178 12.65991699 -15.44230619 8.44143957 -11.38671875 3.375 C-7.73541174 -0.2454509 -4.98093981 -0.62261748 0 0 Z " fill="#EED8B2" transform="translate(74,9)"/>
<path d="M0 0 C2.875 1.75 2.875 1.75 5 5 C5.41796437 9.36481781 5.28795335 13.629508 5 18 C-2.7869934 18.91611687 -2.7869934 18.91611687 -5.67578125 16.734375 C-9.18541965 12.46897376 -10.36777336 9.44031615 -10.27734375 3.9140625 C-10 2 -10 2 -8.375 -0.0625 C-5.06956331 -1.36727764 -3.37331107 -1.10148933 0 0 Z " fill="#E9D1A9" transform="translate(52,11)"/>
<path d="M0 0 C4.98743882 1.27585644 7.65862518 3.08581807 11 7 C12.64480616 11.93441849 12.5902043 16.26410499 10.9375 21.125 C8.46475099 24.79424047 5.48097566 27.31058867 2 30 C0.65815202 26.00590561 0.93136682 21.96616205 1 17.8125 C1.05643747 11.78459348 0.86956777 5.97827842 0 0 Z " fill="#E4B357" transform="translate(75,31)"/>
<path d="M0 0 C1.134375 0.020625 2.26875 0.04125 3.4375 0.0625 C3.98639271 3.27744302 3.94347025 5.31454398 2.08984375 8.0546875 C0.30668802 10.00636125 -1.36134795 11.59654159 -3.5625 13.0625 C-7.07523209 13.2002542 -8.79486373 12.4566916 -11.875 10.875 C-14.18748142 8.39122366 -14.34968124 6.39666061 -14.5625 3.0625 C-14.2325 2.4025 -13.9025 1.7425 -13.5625 1.0625 C-12.92441406 1.07410156 -12.28632812 1.08570313 -11.62890625 1.09765625 C-10.80261719 1.10667969 -9.97632812 1.11570313 -9.125 1.125 C-7.88943359 1.14240234 -7.88943359 1.14240234 -6.62890625 1.16015625 C-3.50525904 1.01253587 -3.70456776 0.06499242 0 0 Z " fill="#E2895B" transform="translate(112.5625,55.9375)"/>
<path d="M0 0 C5.7646419 1.54661124 11.21219632 4.123968 14.4375 9.3125 C14.623125 9.869375 14.80875 10.42625 15 11 C16.98 11 18.96 11 21 11 C21.36458333 15.49652778 21.36458333 15.49652778 19.6875 17.8125 C18 19 18 19 15 19 C15.07476562 19.72960937 15.14953125 20.45921875 15.2265625 21.2109375 C14.8068668 26.37753634 10.63855742 29.59703263 7 33 C3.625 35.125 3.625 35.125 1 36 C0.34 35.67 -0.32 35.34 -1 35 C-0.34 33.35 0.32 31.7 1 30 C1.66 30.66 2.32 31.32 3 32 C8.97131376 27.55042351 8.97131376 27.55042351 12 21 C12.58473016 15.69411518 12.1548161 12.46932281 9 8 C9 7.34 9 6.68 9 6 C8.05125 5.690625 7.1025 5.38125 6.125 5.0625 C3 4 3 4 1 3 C0.67 3.66 0.34 4.32 0 5 C0 3.35 0 1.7 0 0 Z " fill="#866534" transform="translate(74,28)"/>
<path d="M0 0 C1.32 0 2.64 0 4 0 C4.88935377 3.303314 5.46274105 6.62294375 6 10 C8.97 10.66 11.94 11.32 15 12 C14.67 12.99 14.34 13.98 14 15 C6.74 15 -0.52 15 -8 15 C-7.67 14.34 -7.34 13.68 -7 13 C-6.01 13 -5.02 13 -4 13 C-5.89404734 9.65756352 -6.94091591 9.02002851 -10.6875 7.75 C-11.780625 7.5025 -12.87375 7.255 -14 7 C-13.34 5.68 -12.68 4.36 -12 3 C-8.64825544 3.58931772 -6.91304802 4.69613428 -4.4375 7 C-2.15112792 9.11833137 -1.03246941 9.98917686 2 11 C1.67 9.9275 1.34 8.855 1 7.75 C0 4 0 4 0 0 Z " fill="#957B54" transform="translate(31,16)"/>
<path d="M0 0 C0.66 0.33 1.32 0.66 2 1 C1 4 1 4 -1.3125 5.75 C-5.36676418 9.14426769 -7.7617722 12.40974532 -8.24609375 17.67578125 C-8.24956638 20.13093343 -8.17733721 22.55176135 -8 25 C-7.01 25 -6.02 25 -5 25 C-5 25.99 -5 26.98 -5 28 C-5.66 28 -6.32 28 -7 28 C-5.6910428 31.12197478 -5.6910428 31.12197478 -3 33 C-1.62657169 33.0689472 -0.24997898 33.08467708 1.125 33.0625 C2.40375 33.041875 3.6825 33.02125 5 33 C5 33.66 5 34.32 5 35 C-2.91933533 36.58731776 -2.91933533 36.58731776 -6.875 34.4375 C-11.08032879 29.61374051 -12.54157029 25.54686139 -12.27734375 19.2265625 C-11.39512072 12.1439269 -7.10228857 6.73344843 -2 2 C-1.34 2 -0.68 2 0 2 C0 1.34 0 0.68 0 0 Z " fill="#8F6931" transform="translate(45,31)"/>
<path d="M0 0 C0.33 0 0.66 0 1 0 C1.04125 1.155 1.0825 2.31 1.125 3.5 C1.80945612 8.68891732 3.94244008 12.65209562 8 16 C11.18018394 16.95819875 13.62676859 17 17 17 C17 13.04 17 9.08 17 5 C17.66 5.33 18.32 5.66 19 6 C19 9.3 19 12.6 19 16 C22.3 16 25.6 16 29 16 C28.01 16.33 27.02 16.66 26 17 C26 17.66 26 18.32 26 19 C24.02 19.33 22.04 19.66 20 20 C20 21.98 20 23.96 20 26 C18.0549 23.08235 17.54723683 21.37462715 17 18 C16.37351562 18.09539063 15.74703125 18.19078125 15.1015625 18.2890625 C14.28429688 18.39992188 13.46703125 18.51078125 12.625 18.625 C11.40683594 18.79902344 11.40683594 18.79902344 10.1640625 18.9765625 C9.44992188 18.98429687 8.73578125 18.99203125 8 19 C7.34 18.34 6.68 17.68 6 17 C3.67724823 16.59952556 1.34260643 16.2602896 -1 16 C0.32 15.67 1.64 15.34 3 15 C2.505 14.195625 2.01 13.39125 1.5 12.5625 C-0.34527349 8.17997546 -0.28061086 4.67684769 0 0 Z " fill="#997C53" transform="translate(40,12)"/>
<path d="M0 0 C1.46015291 0.28241641 2.91809793 0.57626614 4.375 0.875 C5.18710937 1.03742187 5.99921875 1.19984375 6.8359375 1.3671875 C9 2 9 2 11 4 C11.4140625 6.1640625 11.4140625 6.1640625 11.625 8.625 C11.69976562 9.44226562 11.77453125 10.25953125 11.8515625 11.1015625 C11.92503906 12.04128906 11.92503906 12.04128906 12 13 C4.21428571 12.10164835 4.21428571 12.10164835 1 10 C-0.60725635 6.78548731 -0.05748185 3.56387464 0 0 Z " fill="#EBCFA3" transform="translate(21,47)"/>
<path d="M0 0 C0.66 0.33 1.32 0.66 2 1 C1 4 1 4 -1.3125 5.75 C-5.61659421 9.35342771 -7.64516385 12.63738262 -8.46875 18.12109375 C-8.71992174 21.08282721 -8.90244789 24.02953816 -9 27 C-9.33 27 -9.66 27 -10 27 C-10 24.36 -10 21.72 -10 19 C-10.66 19 -11.32 19 -12 19 C-10.74872479 12.46556277 -7.60946439 7.78398754 -3 3 C-2.01 2.67 -1.02 2.34 0 2 C0 1.34 0 0.68 0 0 Z " fill="#A07F4F" transform="translate(45,31)"/>
<path d="M0 0 C2.875 1.25 2.875 1.25 5 3 C5.8125 5.1875 5.8125 5.1875 6 7 C6.99 7 7.98 7 9 7 C9 7.99 9 8.98 9 10 C6.4754254 8.91803946 4.99423858 7.99366244 3.125 5.9375 C0.42497458 3.47571211 -1.3856867 3.15380057 -5 3 C-5.99 3.66 -6.98 4.32 -8 5 C-8.73606499 8.56769552 -8.73606499 8.56769552 -9 12 C-9.33 12 -9.66 12 -10 12 C-10.08131463 10.56344146 -10.13933559 9.1255517 -10.1875 7.6875 C-10.22230469 6.88699219 -10.25710937 6.08648437 -10.29296875 5.26171875 C-10 3 -10 3 -8.69921875 1.23046875 C-5.85699143 -0.82769586 -3.38910883 -0.35059747 0 0 Z " fill="#927653" transform="translate(51,8)"/>
<path d="M0 0 C0.33 0 0.66 0 1 0 C1.04125 1.155 1.0825 2.31 1.125 3.5 C1.79105716 8.68969534 4.09322824 12.53403656 8 16 C10.53432806 16.93770138 12.25007597 17 15 17 C13 19 13 19 10.5 19.25 C8 19 8 19 6 17 C3.67724823 16.59952556 1.34260643 16.2602896 -1 16 C0.32 15.67 1.64 15.34 3 15 C2.505 14.195625 2.01 13.39125 1.5 12.5625 C-0.34527349 8.17997546 -0.28061086 4.67684769 0 0 Z " fill="#AC9169" transform="translate(40,12)"/>
<path d="M0 0 C3.3010299 0.59885941 5.21425023 1.69685597 7.75 3.875 C8.36359375 4.38804688 8.9771875 4.90109375 9.609375 5.4296875 C11 7 11 7 11 10 C10.34 10 9.68 10 9 10 C9 9.34 9 8.68 9 8 C5.49461443 6.03698408 1.86648272 5.04097612 -2 4 C-1.34 2.68 -0.68 1.36 0 0 Z " fill="#6C5535" transform="translate(19,19)"/>
<path d="M0 0 C0.36458333 4.49652778 0.36458333 4.49652778 -1.3125 6.8125 C-3 8 -3 8 -6 8 C-6.33 8.66 -6.66 9.32 -7 10 C-7 7.36 -7 4.72 -7 2 C-4.35261084 0.5393715 -3.10551666 0 0 0 Z " fill="#5D3E19" transform="translate(95,39)"/>
<path d="M0 0 C0.33 0 0.66 0 1 0 C1.13277344 0.68707031 1.26554687 1.37414063 1.40234375 2.08203125 C1.57894531 2.98308594 1.75554688 3.88414063 1.9375 4.8125 C2.19853516 6.15248047 2.19853516 6.15248047 2.46484375 7.51953125 C2.97741153 10.11397171 2.97741153 10.11397171 4 13 C1.125 13.1875 1.125 13.1875 -2 13 C-4 10 -4 10 -3.625 7.8125 C-3.41875 7.214375 -3.2125 6.61625 -3 6 C-2.34 6 -1.68 6 -1 6 C-0.67 4.02 -0.34 2.04 0 0 Z " fill="#E0C69D" transform="translate(39,14)"/>
<path d="M0 0 C1.134375 0.020625 2.26875 0.04125 3.4375 0.0625 C3.7675 2.0425 4.0975 4.0225 4.4375 6.0625 C3.4475 6.0625 2.4575 6.0625 1.4375 6.0625 C1.1075 5.4025 0.7775 4.7425 0.4375 4.0625 C-0.26117188 4.08570312 -0.95984375 4.10890625 -1.6796875 4.1328125 C-2.58976562 4.15085937 -3.49984375 4.16890625 -4.4375 4.1875 C-5.34242187 4.21070312 -6.24734375 4.23390625 -7.1796875 4.2578125 C-9.5625 4.0625 -9.5625 4.0625 -11.5625 2.0625 C-10.428125 1.918125 -9.29375 1.77375 -8.125 1.625 C-4.13770521 0.99542714 -4.0324238 0.07074428 0 0 Z " fill="#805E33" transform="translate(69.5625,63.9375)"/>
<path d="M0 0 C-0.33 0.99 -0.66 1.98 -1 3 C-3 3.66666667 -5 4.33333333 -7 5 C-9.25065102 6.91666921 -9.25065102 6.91666921 -11 9 C-11.66 9.66 -12.32 10.32 -13 11 C-13 10.34 -13 9.68 -13 9 C-13.99 8.67 -14.98 8.34 -16 8 C-15.01 8 -14.02 8 -13 8 C-12.7525 7.401875 -12.505 6.80375 -12.25 6.1875 C-10.45162454 3.04034295 -8.3702858 1.45676193 -4.9375 0.3125 C-3 0 -3 0 0 0 Z " fill="#A38560" transform="translate(73,6)"/>
<path d="M0 0 C0.33 0 0.66 0 1 0 C1.13277344 0.61488281 1.26554687 1.22976562 1.40234375 1.86328125 C1.57894531 2.67152344 1.75554688 3.47976562 1.9375 4.3125 C2.11152344 5.11300781 2.28554688 5.91351563 2.46484375 6.73828125 C2.99886159 9.145401 2.99886159 9.145401 4 12 C1.04335481 13.4783226 -1.74229737 13.06032783 -5 13 C-5.33 12.01 -5.66 11.02 -6 10 C-3.69 10 -1.38 10 1 10 C0.67 9.34 0.34 8.68 0 8 C-0.13415472 5.3276379 -0.04318541 2.67749512 0 0 Z " fill="#9E8053" transform="translate(32,50)"/>
<path d="M0 0 C1.32 0 2.64 0 4 0 C5.3271261 3.9813783 5.06915913 7.85045227 5 12 C4.34 12 3.68 12 3 12 C1.57499941 8.00999834 0.59924224 4.19469571 0 0 Z " fill="#715634" transform="translate(31,16)"/>
<path d="M0 0 C3 2 3 2 3.51171875 4.1640625 C3.56972656 4.97617187 3.62773438 5.78828125 3.6875 6.625 C3.75324219 7.44226562 3.81898437 8.25953125 3.88671875 9.1015625 C3.92410156 9.72804688 3.96148437 10.35453125 4 11 C2.68 10.67 1.36 10.34 0 10 C0 8.35 0 6.7 0 5 C-0.99 4.67 -1.98 4.34 -3 4 C-2.01 3.67 -1.02 3.34 0 3 C0 2.01 0 1.02 0 0 Z " fill="#EAD0A3" transform="translate(29,49)"/>
<path d="M0 0 C0.66 0.33 1.32 0.66 2 1 C1.05125 1.639375 0.1025 2.27875 -0.875 2.9375 C-4.8705059 6.19798359 -5.3772572 10.07174236 -6 15 C-6.33 15 -6.66 15 -7 15 C-8.55222914 8.07466999 -8.55222914 8.07466999 -7.05859375 5.16796875 C-4.88774487 2.50462879 -3.27776851 1.0925895 0 0 Z " fill="#917853" transform="translate(25,30)"/>
<path d="M0 0 C2.64 0.66 5.28 1.32 8 2 C8 2.99 8 3.98 8 5 C5.03 4.505 5.03 4.505 2 4 C1.34 5.32 0.68 6.64 0 8 C0 5.36 0 2.72 0 0 Z " fill="#C5AC86" transform="translate(21,47)"/>
<path d="M0 0 C3.91211733 1.15585285 6.8745041 2.35534962 10 5 C9.67 5.66 9.34 6.32 9 7 C6.36 5.68 3.72 4.36 1 3 C0.67 3.66 0.34 4.32 0 5 C0 3.35 0 1.7 0 0 Z " fill="#805D2D" transform="translate(74,28)"/>
<path d="M0 0 C0.66 0.99 1.32 1.98 2 3 C1.125 5.6875 1.125 5.6875 0 8 C-1.98 8 -3.96 8 -6 8 C-4.02 5.36 -2.04 2.72 0 0 Z " fill="#9F845D" transform="translate(75,20)"/>
<path d="M0 0 C2.475 0.495 2.475 0.495 5 1 C4.67 2.32 4.34 3.64 4 5 C2.68 4.67 1.36 4.34 0 4 C0 2.68 0 1.36 0 0 Z " fill="#735020" transform="translate(40,48)"/>
<path d="M0 0 C0.33 0 0.66 0 1 0 C1.3125 3.1875 1.3125 3.1875 1 7 C-1.5 9.9375 -1.5 9.9375 -4 12 C-4.66 11.67 -5.32 11.34 -6 11 C-5.195625 10.113125 -4.39125 9.22625 -3.5625 8.3125 C-1.2960841 5.61712968 -0.31582634 3.57936522 0 0 Z " fill="#D1B17F" transform="translate(89,47)"/>
<path d="M0 0 C0.99 0 1.98 0 3 0 C3.36923077 4.55384615 3.36923077 4.55384615 1.5 6.8125 C1.005 7.204375 0.51 7.59625 0 8 C-0.66 7.67 -1.32 7.34 -2 7 C-1.01 5.35 -0.02 3.7 1 2 C0.34 1.67 -0.32 1.34 -1 1 C-0.67 0.67 -0.34 0.34 0 0 Z " fill="#6F5129" transform="translate(92,39)"/>
<path d="M0 0 C0.33 0.66 0.66 1.32 1 2 C4.96 2 8.92 2 13 2 C13 2.33 13 2.66 13 3 C4.585 3.495 4.585 3.495 -4 4 C-3.67 3.34 -3.34 2.68 -3 2 C-2.01 2 -1.02 2 0 2 C0 1.34 0 0.68 0 0 Z " fill="#BCA57F" transform="translate(27,27)"/>
<path d="M0 0 C1.44207941 2.88415883 1.09394887 5.41721528 1.0625 8.625 C1.05347656 9.81351563 1.04445312 11.00203125 1.03515625 12.2265625 C1.02355469 13.14179687 1.01195312 14.05703125 1 15 C0.67 15 0.34 15 0 15 C0 12.36 0 9.72 0 7 C-0.66 7 -1.32 7 -2 7 C-1.34 4.69 -0.68 2.38 0 0 Z " fill="#A8854D" transform="translate(35,43)"/>
<path d="M0 0 C-1 3 -1 3 -3 4 C-4.13350534 6.01669827 -4.13350534 6.01669827 -5 8 C-5.33 6.02 -5.66 4.04 -6 2 C-2.25 0 -2.25 0 0 0 Z " fill="#DABB87" transform="translate(79,62)"/>
<path d="M0 0 C0.66 0.33 1.32 0.66 2 1 C-0.475 5.455 -0.475 5.455 -3 10 C-4.21744727 6.34765818 -3.64202228 5.37046678 -2 2 C-1.34 1.34 -0.68 0.68 0 0 Z " fill="#936F3D" transform="translate(39,38)"/>
<path d="M0 0 C1.98 0 3.96 0 6 0 C3 2 3 2 1 2 C1 3.98 1 5.96 1 8 C-1 5 -1 5 -0.625 2.3125 C-0.41875 1.549375 -0.2125 0.78625 0 0 Z " fill="#BD9652" transform="translate(59,30)"/>
<path d="M0 0 C1.45880109 0.14107747 2.91703551 0.28802415 4.375 0.4375 C5.59316406 0.55931641 5.59316406 0.55931641 6.8359375 0.68359375 C9 1 9 1 11 2 C5.61976549 4.20100503 5.61976549 4.20100503 2.6875 3.25 C1 2 1 2 0 0 Z " fill="#745630" transform="translate(44,29)"/>
<path d="M0 0 C3 1.8125 3 1.8125 6 4 C6 4.99 6 5.98 6 7 C5.34 7 4.68 7 4 7 C4 6.34 4 5.68 4 5 C2.68 4.34 1.36 3.68 0 3 C0 2.01 0 1.02 0 0 Z " fill="#806541" transform="translate(24,22)"/>
<path d="M0 0 C0.66 0.66 1.32 1.32 2 2 C2.99 2.33 3.98 2.66 5 3 C2.625 4.5625 2.625 4.5625 0 6 C-0.66 5.67 -1.32 5.34 -2 5 C-1.34 3.35 -0.68 1.7 0 0 Z " fill="#765225" transform="translate(75,58)"/>
</svg>
